<?xml version="1.0" encoding="UTF-8"?>
<!DOCTYPE svg PUBLIC "-//W3C//DTD SVG 1.1//EN" "http://www.w3.org/Graphics/SVG/1.1/DTD/svg11.dtd">
<svg xmlns="http://www.w3.org/2000/svg" version="1.1" width="1920px" height="1080px" style="shape-rendering:geometricPrecision; text-rendering:geometricPrecision; image-rendering:optimizeQuality; fill-rule:evenodd; clip-rule:evenodd" xmlns:xlink="http://www.w3.org/1999/xlink">
<g><path style="opacity:0.956" fill="#cccccc" d="M 464.5,75.5 C 465.458,75.9528 466.292,76.6195 467,77.5C 470,83.5 473,89.5 476,95.5C 482.813,99.6351 489.646,103.802 496.5,108C 489.379,111.061 482.379,114.394 475.5,118C 470.798,123.904 466.464,130.071 462.5,136.5C 458.434,130.425 454.767,124.092 451.5,117.5C 444.5,113 437.5,108.5 430.5,104C 438.071,101.215 445.405,97.8814 452.5,94C 456.723,87.9504 460.723,81.7837 464.5,75.5 Z"/></g>
<g><path style="opacity:0.89" fill="#cccccc" d="M 1665.5,138.5 C 1667.02,138.511 1668.18,139.177 1669,140.5C 1670.67,159.654 1672.17,178.821 1673.5,198C 1673.36,202.526 1673.03,207.026 1672.5,211.5C 1670.09,211.863 1668.59,210.863 1668,208.5C 1663.74,185.195 1662.91,161.862 1665.5,138.5 Z"/></g>
<g><path style="opacity:0.869" fill="#cbcbcb" d="M 1597.5,147.5 C 1598.98,147.238 1600.31,147.571 1601.5,148.5C 1611.67,164.833 1621.83,181.167 1632,197.5C 1635.63,203.417 1638.13,209.75 1639.5,216.5C 1638.13,216.657 1636.79,216.49 1635.5,216C 1632.07,212.958 1629.23,209.458 1627,205.5C 1616.82,187.818 1607.16,169.818 1598,151.5C 1597.51,150.207 1597.34,148.873 1597.5,147.5 Z"/></g>
<g><path style="opacity:0.865" fill="#cbcbcb" d="M 1635.5,175.5 C 1636.98,175.238 1638.31,175.571 1639.5,176.5C 1648.54,186.894 1653.37,198.894 1654,212.5C 1653.59,212.957 1653.09,213.291 1652.5,213.5C 1649.94,211.393 1648.11,208.726 1647,205.5C 1644.16,196.815 1640.49,188.481 1636,180.5C 1635.51,178.866 1635.34,177.199 1635.5,175.5 Z"/></g>
<g><path style="opacity:0.969" fill="#cbcbcb" d="M 780.5,190.5 C 786.314,200.121 791.647,210.121 796.5,220.5C 806.623,226.063 816.623,231.897 826.5,238C 816.5,242.667 806.5,247.333 796.5,252C 789.297,261.572 782.464,271.405 776,281.5C 771.089,271.343 765.922,261.343 760.5,251.5C 750.464,245.485 740.464,239.485 730.5,233.5C 740.803,228.683 751.136,223.85 761.5,219C 768.216,209.729 774.549,200.229 780.5,190.5 Z"/></g>
<g><path style="opacity:0.879" fill="#cccccc" d="M 1779.5,195.5 C 1780.83,195.5 1782.17,195.5 1783.5,195.5C 1782.85,199.14 1781.35,202.473 1779,205.5C 1766.54,218.633 1752.37,229.467 1736.5,238C 1732.79,238.825 1729.12,238.659 1725.5,237.5C 1724.6,234.43 1725.6,231.93 1728.5,230C 1747.61,221.459 1764.61,209.959 1779.5,195.5 Z"/></g>
<g><path style="opacity:0.934" fill="#cccccc" d="M 1607.5,258.5 C 1604.93,252.37 1602.1,246.37 1599,240.5C 1598.07,237.15 1598.9,234.317 1601.5,232C 1618.82,230.885 1634.99,234.718 1650,243.5C 1668.73,231.548 1687.57,219.715 1706.5,208C 1710.95,204.598 1715.12,204.765 1719,208.5C 1719.16,227.856 1719.82,247.19 1721,266.5C 1724.4,271.617 1728.9,275.45 1734.5,278C 1746.26,283.586 1758.26,288.586 1770.5,293C 1774.91,297.868 1774.24,301.868 1768.5,305C 1749.58,311.864 1730.58,318.531 1711.5,325C 1715.34,347.346 1716.18,369.846 1714,392.5C 1710.99,396.902 1707.33,397.569 1703,394.5C 1701.38,390.29 1699.38,386.29 1697,382.5C 1687,373.167 1677,363.833 1667,354.5C 1664.61,349.446 1661.44,344.946 1657.5,341C 1653.94,339.693 1650.27,338.86 1646.5,338.5C 1623.92,341.47 1601.25,342.97 1578.5,343C 1575.25,340.261 1574.75,337.094 1577,333.5C 1586.83,324.333 1596.67,315.167 1606.5,306C 1613.38,299.618 1619.72,292.784 1625.5,285.5C 1618.24,277.295 1612.24,268.295 1607.5,258.5 Z M 1705.5,221.5 C 1706.8,223.397 1707.47,225.731 1707.5,228.5C 1706.07,240.523 1706.23,252.523 1708,264.5C 1708.29,270.507 1710.45,275.673 1714.5,280C 1726.63,285.566 1738.63,291.399 1750.5,297.5C 1734.88,303.096 1719.21,308.596 1703.5,314C 1700.52,315.145 1698.86,317.312 1698.5,320.5C 1701.72,336.355 1702.89,352.355 1702,368.5C 1696.3,362.468 1690.3,356.801 1684,351.5C 1678.95,345.448 1674.28,339.115 1670,332.5C 1665.44,327.536 1659.78,325.536 1653,326.5C 1634.8,327.789 1616.63,328.955 1598.5,330C 1612.73,315.104 1627.56,300.937 1643,287.5C 1644.86,281.379 1642.69,277.546 1636.5,276C 1633.67,273.833 1631.17,271.333 1629,268.5C 1624.45,261.242 1620.29,253.742 1616.5,246C 1626.46,246.828 1635.79,249.828 1644.5,255C 1646.83,255.667 1649.17,255.667 1651.5,255C 1652.89,253.043 1654.39,251.21 1656,249.5C 1673.11,241.032 1689.61,231.699 1705.5,221.5 Z"/></g>
<g><path style="opacity:0.927" fill="#cccccc" d="M 1215.5,512.5 C 1214.83,512.5 1214.5,512.833 1214.5,513.5C 1212.79,515.85 1210.45,516.85 1207.5,516.5C 1206.76,512.475 1207.26,508.475 1209,504.5C 1231.26,455.935 1260.26,411.935 1296,372.5C 1304.9,362.932 1314.4,354.099 1324.5,346C 1302.33,356.427 1281.67,369.427 1262.5,385C 1255.17,391.667 1247.83,398.333 1240.5,405C 1234.33,406.833 1232.17,404.667 1234,398.5C 1250.62,365.212 1273.79,337.379 1303.5,315C 1287.32,319.735 1271.65,326.069 1256.5,334C 1250.5,334.333 1249.17,332 1252.5,327C 1252.04,326.586 1251.71,326.086 1251.5,325.5C 1258.22,313.615 1267.22,303.782 1278.5,296C 1297.46,284.024 1317.79,275.024 1339.5,269C 1406.09,250.549 1473.75,237.883 1542.5,231C 1557.2,230.149 1571.87,230.482 1586.5,232C 1589.38,233.666 1590.21,236.166 1589,239.5C 1588.25,240.126 1587.42,240.626 1586.5,241C 1505.26,244.929 1425.59,258.262 1347.5,281C 1327.13,286.784 1308.13,295.451 1290.5,307C 1296.4,305.693 1302.4,304.36 1308.5,303C 1314.82,302.5 1321.16,302.334 1327.5,302.5C 1327.66,303.873 1327.49,305.207 1327,306.5C 1303.56,326.946 1281.72,349.112 1261.5,373C 1271.32,366.893 1280.99,360.226 1290.5,353C 1345.36,316.825 1405.7,298.158 1471.5,297C 1473.85,299.373 1474.02,301.873 1472,304.5C 1439.19,307.609 1407.02,314.109 1375.5,324C 1360.83,334.333 1346.17,344.667 1331.5,355C 1294.4,387.056 1264.57,424.556 1242,467.5C 1323.82,384.732 1421.48,328.732 1535,299.5C 1540.33,300.221 1541.83,303.054 1539.5,308C 1513.73,315.982 1493.07,330.482 1477.5,351.5C 1506.5,333.55 1537.66,320.55 1571,312.5C 1575.81,314.857 1576.31,317.691 1572.5,321C 1552.04,327.153 1532.04,334.486 1512.5,343C 1494.67,352.413 1477.01,362.079 1459.5,372C 1455.5,372.783 1452.5,371.45 1450.5,368C 1453.27,360.282 1457.44,353.449 1463,347.5C 1470.54,340.294 1478.37,333.46 1486.5,327C 1389.32,362.157 1303.82,415.657 1230,487.5C 1225.66,496.188 1220.83,504.522 1215.5,512.5 Z"/></g>
<g><path style="opacity:0.856" fill="#cbcbcb" d="M 1768.5,235.5 C 1775.6,235.543 1776.27,237.71 1770.5,242C 1763.93,245.902 1757.93,250.569 1752.5,256C 1749.92,257.713 1747.25,258.213 1744.5,257.5C 1743.41,253.492 1744.74,250.325 1748.5,248C 1755.06,243.558 1761.73,239.391 1768.5,235.5 Z"/></g>
<g><path style="opacity:0.881" fill="#cccccc" d="M 1807.5,244.5 C 1810.29,245.585 1810.96,247.418 1809.5,250C 1795.47,257.566 1780.8,263.566 1765.5,268C 1759.97,269.475 1754.47,269.641 1749,268.5C 1748.29,266.633 1748.79,265.133 1750.5,264C 1753.17,262.667 1755.83,261.333 1758.5,260C 1774.89,254.659 1791.23,249.492 1807.5,244.5 Z"/></g>
<g><path style="opacity:0.992" fill="#cbcbcb" d="M 517.5,246.5 C 549.135,244.896 580.468,247.729 611.5,255C 529.269,276.793 466.102,323.627 422,395.5C 380.291,472.482 375.291,551.815 407,633.5C 441.808,708.644 497.641,761.477 574.5,792C 588.215,796.35 601.882,800.684 615.5,805C 517.072,827.546 427.072,809.546 345.5,751C 256.116,679.191 220.95,586.691 240,473.5C 260.32,392.865 306.154,331.365 377.5,289C 421.012,264.216 467.679,250.05 517.5,246.5 Z"/></g>
<g><path style="opacity:0.884" fill="#cccccc" d="M 1607.5,258.5 C 1607.5,259.833 1607.5,261.167 1607.5,262.5C 1555.3,263.504 1503.63,269.337 1452.5,280C 1433.46,284.441 1414.46,288.941 1395.5,293.5C 1395.29,291.856 1395.62,290.356 1396.5,289C 1458.54,268.458 1522.21,257.458 1587.5,256C 1594.24,256.385 1600.9,257.218 1607.5,258.5 Z"/></g>
<g><path style="opacity:0.921" fill="#cbcbcb" d="M 192.5,257.5 C 193.496,257.414 194.329,257.748 195,258.5C 196.228,262.059 197.894,265.392 200,268.5C 203.456,270.139 206.623,272.139 209.5,274.5C 206.845,276.494 203.845,277.994 200.5,279C 197.667,282.5 194.833,286 192,289.5C 190.065,286.629 188.399,283.629 187,280.5C 183.081,278.124 179.248,275.624 175.5,273C 179.007,270.746 182.673,268.746 186.5,267C 189.146,264.198 191.146,261.032 192.5,257.5 Z"/></g>
<g><path style="opacity:0.858" fill="#cbcbcb" d="M 1577.5,277.5 C 1580.8,278.165 1584.14,278.832 1587.5,279.5C 1588.74,281.007 1588.41,282.174 1586.5,283C 1573.01,284.333 1559.67,286.5 1546.5,289.5C 1546.24,288.022 1546.57,286.689 1547.5,285.5C 1557.21,281.241 1567.21,278.574 1577.5,277.5 Z"/></g>
<g><path style="opacity:0.902" fill="#cbcbcb" d="M 1639.5,439.5 C 1638.83,439.5 1638.5,439.833 1638.5,440.5C 1637.61,441.11 1636.61,441.443 1635.5,441.5C 1634.22,440.306 1633.56,438.64 1633.5,436.5C 1635.59,412.077 1642.42,389.077 1654,367.5C 1655.44,365.845 1657.28,365.178 1659.5,365.5C 1658.8,373.309 1657.3,380.975 1655,388.5C 1649.73,405.488 1644.56,422.488 1639.5,439.5 Z"/></g>
<g><path style="opacity:0.876" fill="#cbcbcb" d="M 1618.5,366.5 C 1621.68,366.176 1622.85,367.51 1622,370.5C 1604.75,386.763 1586.08,401.096 1566,413.5C 1563.81,412.941 1563.15,411.607 1564,409.5C 1581.2,393.779 1599.37,379.445 1618.5,366.5 Z"/></g>
<g><path style="opacity:0.858" fill="#cccccc" d="M 1631.5,371.5 C 1633.35,371.222 1634.68,371.889 1635.5,373.5C 1629.25,383.488 1621.91,392.655 1613.5,401C 1608.52,401.769 1607.36,399.936 1610,395.5C 1616.69,386.982 1623.86,378.982 1631.5,371.5 Z"/></g>
<g><path style="opacity:0.967" fill="#000000" d="M 790.5,422.5 C 791.833,422.5 793.167,422.5 794.5,422.5C 792.034,451.685 776.2,463.685 747,458.5C 745.841,469.797 745.174,481.13 745,492.5C 744.333,530.167 744.333,567.833 745,605.5C 746.004,618.866 747.004,632.2 748,645.5C 745.434,650.055 741.6,653.222 736.5,655C 724.542,659.526 712.208,661.192 699.5,660C 698.426,659.261 697.759,658.261 697.5,657C 700.02,649.032 701.52,640.865 702,632.5C 706.286,575.242 707.953,517.908 707,460.5C 706.626,459.584 706.126,458.75 705.5,458C 689.598,454.556 674.765,457.056 661,465.5C 659.053,464.956 658.22,463.623 658.5,461.5C 664.682,440.315 678.849,429.315 701,428.5C 717.009,429.389 733.009,430.389 749,431.5C 758.909,430.943 768.743,429.776 778.5,428C 782.95,426.939 786.95,425.105 790.5,422.5 Z"/></g>
<g><path style="opacity:0.969" fill="#000000" d="M 1495.5,422.5 C 1497.12,422.36 1498.29,423.027 1499,424.5C 1495.7,452.095 1480.2,463.262 1452.5,458C 1452,458.5 1451.5,459 1451,459.5C 1447.36,521.885 1447.69,584.218 1452,646.5C 1448.86,651.497 1444.36,654.664 1438.5,656C 1427.44,659.733 1416.1,661.067 1404.5,660C 1403.38,659.161 1402.71,657.994 1402.5,656.5C 1405.74,641.681 1407.57,626.681 1408,611.5C 1409.97,573.684 1411.47,535.851 1412.5,498C 1411.99,484.826 1411.32,471.659 1410.5,458.5C 1394.64,454.551 1379.8,456.885 1366,465.5C 1364.17,465 1363,463.833 1362.5,462C 1368.83,440.494 1383.17,429.328 1405.5,428.5C 1421.34,429.408 1437.17,430.408 1453,431.5C 1462.92,431.018 1472.75,429.851 1482.5,428C 1487.21,426.827 1491.54,424.993 1495.5,422.5 Z"/></g>
<g><path style="opacity:0.96" fill="#000000" d="M 1728.5,432.5 C 1733.03,433.199 1735.19,435.865 1735,440.5C 1735.79,456.658 1736.29,472.824 1736.5,489C 1735.88,511.177 1735.38,533.344 1735,555.5C 1746.83,539.667 1760.67,525.833 1776.5,514C 1787.48,509.703 1797.31,511.537 1806,519.5C 1806.71,521.367 1806.21,522.867 1804.5,524C 1788.27,530.899 1774.27,540.899 1762.5,554C 1782.18,559.485 1794.01,572.318 1798,592.5C 1798.91,606.992 1800.91,621.325 1804,635.5C 1806.58,643.158 1810.08,650.325 1814.5,657C 1814.18,658.653 1813.18,659.653 1811.5,660C 1799.3,661.748 1787.64,660.081 1776.5,655C 1771.19,651.676 1768.36,646.842 1768,640.5C 1767.93,622.774 1766.93,605.107 1765,587.5C 1764.07,580.689 1761.24,574.856 1756.5,570C 1750.44,567.268 1745.61,568.768 1742,574.5C 1737.07,581.198 1734.24,588.698 1733.5,597C 1734.04,611.533 1735.04,626.033 1736.5,640.5C 1736.1,648.407 1732.1,653.574 1724.5,656C 1716.94,659.015 1709.11,660.848 1701,661.5C 1698.69,661.516 1697.03,660.516 1696,658.5C 1698.99,634.289 1700.99,609.956 1702,585.5C 1702.67,553.833 1702.67,522.167 1702,490.5C 1702.25,479.547 1699.91,469.213 1695,459.5C 1692.29,456.622 1689.46,453.956 1686.5,451.5C 1689.44,445.741 1694.11,441.908 1700.5,440C 1709.55,435.918 1718.89,433.418 1728.5,432.5 Z"/></g>
<g><path style="opacity:0.966" fill="#000000" d="M 1635.5,441.5 C 1636.61,441.443 1637.61,441.11 1638.5,440.5C 1639.17,440.5 1639.5,440.167 1639.5,439.5C 1649.36,435.027 1659.7,433.194 1670.5,434C 1671.67,434.5 1672.5,435.333 1673,436.5C 1673.91,447.982 1674.41,459.482 1674.5,471C 1673.06,522.826 1672.56,574.66 1673,626.5C 1673.13,636.957 1674.3,647.291 1676.5,657.5C 1676.43,658.772 1676.1,659.938 1675.5,661C 1663.97,663.231 1652.97,661.565 1642.5,656C 1639.67,654.5 1637.5,652.333 1636,649.5C 1638.41,620.236 1640.07,590.903 1641,561.5C 1641.51,533.826 1641.18,506.159 1640,478.5C 1639.34,467.174 1634.51,458.174 1625.5,451.5C 1627.88,447.118 1631.22,443.784 1635.5,441.5 Z"/></g>
<g><path style="opacity:0.964" fill="#cccccc" d="M 571.5,471.5 C 576.899,479.286 581.566,487.619 585.5,496.5C 594.454,501.471 603.12,506.805 611.5,512.5C 602.531,516.65 593.531,520.817 584.5,525C 579.362,532.97 574.029,540.804 568.5,548.5C 567.522,548.023 566.689,547.357 566,546.5C 562.333,539.167 558.667,531.833 555,524.5C 546.283,518.888 537.45,513.388 528.5,508C 537.382,503.725 546.382,499.725 555.5,496C 561.056,487.951 566.389,479.784 571.5,471.5 Z"/></g>
<g><path style="opacity:0.966" fill="#000000" d="M 924.5,597.5 C 925.263,580.621 928.93,564.288 935.5,548.5C 948.66,519.586 970.993,507.419 1002.5,512C 1006.23,513.396 1009.73,515.23 1013,517.5C 1021.18,509.992 1030.68,507.159 1041.5,509C 1042.12,510.569 1042.46,512.236 1042.5,514C 1037.68,547.994 1035.68,582.161 1036.5,616.5C 1043.28,616.74 1048.28,619.74 1051.5,625.5C 1048.6,628.904 1045.43,632.237 1042,635.5C 1037.23,645.073 1035.06,655.239 1035.5,666C 1035.82,687.919 1037.32,709.753 1040,731.5C 1040.85,736.246 1042.02,740.913 1043.5,745.5C 1043.47,747.029 1042.8,748.196 1041.5,749C 1025.6,749.633 1013.1,743.467 1004,730.5C 1003.14,728.913 1002.47,727.246 1002,725.5C 1001.83,721.5 1001.67,717.5 1001.5,713.5C 1002.27,702.836 1002.43,692.17 1002,681.5C 997.861,680.787 994.028,679.287 990.5,677C 987.346,674.225 986.846,671.058 989,667.5C 995.926,663.243 1000.59,657.243 1003,649.5C 1005.59,615.185 1006.26,580.851 1005,546.5C 1005.07,540.576 1003.23,535.409 999.5,531C 983.71,528.152 972.877,534.318 967,549.5C 959.291,569.02 957.625,589.02 962,609.5C 966.458,623.763 975.458,627.763 989,621.5C 995.202,633.721 993.036,644.554 982.5,654C 951.071,664.853 932.571,653.687 927,620.5C 925.69,612.88 924.857,605.214 924.5,597.5 Z"/></g>
<g><path style="opacity:0.961" fill="#000000" d="M 907.5,560.5 C 907.5,565.5 907.5,570.5 907.5,575.5C 907.333,590.17 907.5,604.837 908,619.5C 908.152,631.633 911.318,642.799 917.5,653C 917.245,654.326 916.578,655.326 915.5,656C 903.688,659.656 892.021,659.322 880.5,655C 878.667,653.833 877.167,652.333 876,650.5C 874.888,643.409 874.388,636.242 874.5,629C 875.41,613.263 875.41,597.596 874.5,582C 860.369,581.932 848.203,586.765 838,596.5C 830.193,606.887 830.693,616.72 839.5,626C 846.457,628.503 852.79,627.336 858.5,622.5C 861.755,623.66 863.588,625.993 864,629.5C 865.261,642.468 859.761,651.302 847.5,656C 829.728,661.786 814.561,657.953 802,644.5C 788.881,612.2 798.048,588.366 829.5,573C 843.019,568.536 856.686,564.536 870.5,561C 872.286,560.215 873.786,559.049 875,557.5C 876.98,550.428 876.647,543.428 874,536.5C 863.155,526.851 852.822,527.517 843,538.5C 841.062,543.22 841.229,547.887 843.5,552.5C 842.747,554.753 841.414,556.587 839.5,558C 831.058,561.294 822.725,560.961 814.5,557C 805.826,549.459 804.326,540.625 810,530.5C 812.833,525 817,520.833 822.5,518C 847.87,507.514 872.87,508.181 897.5,520C 901.187,523.21 904.021,527.044 906,531.5C 907.42,541.086 907.92,550.753 907.5,560.5 Z"/></g>
<g><path style="opacity:0.96" fill="#000000" d="M 1207.5,516.5 C 1210.45,516.85 1212.79,515.85 1214.5,513.5C 1215.17,513.5 1215.5,513.167 1215.5,512.5C 1222.42,510.84 1229.42,510.34 1236.5,511C 1240.06,512.892 1242.56,515.725 1244,519.5C 1248.19,543.694 1245.19,567.027 1235,589.5C 1222.63,619.09 1203.46,643.257 1177.5,662C 1172.26,664.006 1168.76,662.173 1167,656.5C 1160.86,640.901 1156.02,624.901 1152.5,608.5C 1141.9,624.947 1129.57,640.114 1115.5,654C 1111.22,656.615 1107.22,659.615 1103.5,663C 1100.65,663.944 1098.15,663.444 1096,661.5C 1090.67,649.184 1086.34,636.518 1083,623.5C 1078.3,601.674 1072.97,580.007 1067,558.5C 1064.31,549.425 1060.64,540.759 1056,532.5C 1054.29,530.457 1052.29,528.79 1050,527.5C 1049.33,525.833 1049.33,524.167 1050,522.5C 1061.19,514.435 1073.69,510.602 1087.5,511C 1089.29,511.785 1090.79,512.951 1092,514.5C 1094.28,519.624 1095.95,524.957 1097,530.5C 1101.68,558.891 1108.01,586.891 1116,614.5C 1116.69,616.555 1117.85,618.221 1119.5,619.5C 1128.56,610.398 1135.4,599.731 1140,587.5C 1144.45,576.875 1144.45,566.208 1140,555.5C 1137.63,547.386 1134.3,539.72 1130,532.5C 1127.74,530.954 1125.58,529.288 1123.5,527.5C 1122.09,524.138 1123.09,521.638 1126.5,520C 1137.66,513.498 1149.66,510.498 1162.5,511C 1166.01,515.172 1168.17,520.006 1169,525.5C 1174.12,551.55 1179.45,577.55 1185,603.5C 1186.27,607.99 1187.94,612.323 1190,616.5C 1190.74,617.574 1191.74,618.241 1193,618.5C 1197.37,615.795 1200.7,612.128 1203,607.5C 1207.79,597.915 1211.46,587.915 1214,577.5C 1214.92,568.091 1214.58,558.758 1213,549.5C 1209.63,540.129 1203.13,534.296 1193.5,532C 1191.43,529.313 1191.77,526.646 1194.5,524C 1198.56,520.971 1202.89,518.471 1207.5,516.5 Z"/></g>
<g><path style="opacity:0.961" fill="#000000" d="M 1302.5,510.5 C 1318.9,509.506 1334.57,512.34 1349.5,519C 1354.15,522.642 1357.65,527.142 1360,532.5C 1361.06,563.153 1361.72,593.819 1362,624.5C 1362.49,634.967 1365.65,644.467 1371.5,653C 1371.24,654.261 1370.57,655.261 1369.5,656C 1358.49,659.246 1347.49,659.246 1336.5,656C 1333.9,655.117 1331.73,653.617 1330,651.5C 1328.87,641.904 1328.37,632.237 1328.5,622.5C 1328.85,609.157 1329.01,595.823 1329,582.5C 1314.19,581.776 1301.52,586.776 1291,597.5C 1284.84,606.86 1285.01,616.027 1291.5,625C 1298.86,628.726 1305.69,627.893 1312,622.5C 1314.33,623.5 1316,625.167 1317,627.5C 1319.87,637.753 1317.04,645.92 1308.5,652C 1292.11,661.115 1276.11,660.449 1260.5,650C 1250.55,639.043 1247.05,626.21 1250,611.5C 1252.34,598.655 1258.84,588.488 1269.5,581C 1274.51,577.493 1279.84,574.493 1285.5,572C 1297.35,568.163 1309.35,564.83 1321.5,562C 1328.24,559.84 1330.91,555.174 1329.5,548C 1329.27,532.448 1321.6,526.782 1306.5,531C 1299.62,533.214 1295.62,537.881 1294.5,545C 1298.34,551.367 1297.01,556.034 1290.5,559C 1280.77,561.42 1271.94,559.587 1264,553.5C 1258.04,537.236 1262.87,525.07 1278.5,517C 1286.37,513.868 1294.37,511.702 1302.5,510.5 Z"/></g>
<g><path style="opacity:0.96" fill="#000000" d="M 1553.5,510.5 C 1569.93,509.378 1585.6,512.211 1600.5,519C 1607.59,524.015 1611.42,530.849 1612,539.5C 1612.61,559.005 1612.45,578.505 1611.5,598C 1611.42,612.675 1612.92,627.175 1616,641.5C 1617.79,645.593 1619.96,649.426 1622.5,653C 1622.24,654.261 1621.57,655.261 1620.5,656C 1609.16,659.29 1597.83,659.29 1586.5,656C 1584.38,654.878 1582.54,653.378 1581,651.5C 1579.12,646.526 1578.28,641.359 1578.5,636C 1579.26,618.467 1579.76,600.967 1580,583.5C 1564.66,581.64 1551.66,586.64 1541,598.5C 1534.6,608.38 1535.43,617.546 1543.5,626C 1550.69,628.623 1557.19,627.456 1563,622.5C 1565.33,623.5 1567,625.167 1568,627.5C 1570.49,637.018 1567.99,644.852 1560.5,651C 1544.51,660.957 1528.51,660.957 1512.5,651C 1501.29,639.657 1497.45,626.157 1501,610.5C 1506.18,591.651 1518.01,578.818 1536.5,572C 1545.94,568.556 1555.61,565.89 1565.5,564C 1570.26,562.749 1574.76,560.915 1579,558.5C 1581.49,550.2 1580.82,542.2 1577,534.5C 1566.51,527.236 1556.84,528.236 1548,537.5C 1546.87,539.725 1546.04,542.058 1545.5,544.5C 1546.82,548.094 1547.32,551.761 1547,555.5C 1538.92,560.462 1530.42,561.296 1521.5,558C 1512.75,553.455 1509.59,546.288 1512,536.5C 1515.41,526.756 1521.91,519.923 1531.5,516C 1538.82,513.575 1546.16,511.742 1553.5,510.5 Z"/></g>
<g><path style="opacity:0.954" fill="#cbcbcb" d="M 80.5,513.5 C 84.8102,519.437 88.6435,525.77 92,532.5C 98.7477,537.124 105.581,541.624 112.5,546C 104.998,548.946 97.6651,552.279 90.5,556C 86.7047,562.426 82.5381,568.593 78,574.5C 73.932,568.087 70.2653,561.421 67,554.5C 60.0845,550.626 53.2512,546.626 46.5,542.5C 53.3642,539.045 60.3642,535.878 67.5,533C 72.0856,526.597 76.4189,520.097 80.5,513.5 Z"/></g>
<g><path style="opacity:0.96" fill="#c9c9c9" d="M 935.5,548.5 C 928.93,564.288 925.263,580.621 924.5,597.5C 921.091,591.685 917.925,585.685 915,579.5C 912.838,577.504 910.338,576.17 907.5,575.5C 907.5,570.5 907.5,565.5 907.5,560.5C 911.515,559.409 915.015,557.409 918,554.5C 921.418,548.663 925.084,542.996 929,537.5C 931.193,541.23 933.36,544.897 935.5,548.5 Z"/></g>
<g><path style="opacity:0.915" fill="#cbcbcb" d="M 790.5,820.5 C 792.474,823.77 794.474,827.103 796.5,830.5C 799.997,833.083 803.664,835.416 807.5,837.5C 804.178,839.828 800.511,841.661 796.5,843C 794.363,846.636 792.029,850.136 789.5,853.5C 787.413,850.327 785.579,846.994 784,843.5C 780.236,841.368 776.736,838.868 773.5,836C 776.833,834.333 780.167,832.667 783.5,831C 785.72,827.385 788.053,823.885 790.5,820.5 Z"/></g>
<g><path style="opacity:0.973" fill="#cbcbcb" d="M 238.5,847.5 C 244.473,858.104 250.473,868.771 256.5,879.5C 267.5,886.333 278.5,893.167 289.5,900C 278.316,905.424 266.983,910.591 255.5,915.5C 248.333,925.833 241.167,936.167 234,946.5C 227.913,935.994 222.079,925.327 216.5,914.5C 205.298,908.07 194.298,901.403 183.5,894.5C 194.694,889.071 206.027,883.904 217.5,879C 224.634,868.557 231.634,858.057 238.5,847.5 Z"/></g>
<g><path style="opacity:0.954" fill="#cccccc" d="M 574.5,985.5 C 575.458,985.953 576.292,986.619 577,987.5C 579.901,993.636 583.068,999.636 586.5,1005.5C 593.167,1009.5 599.833,1013.5 606.5,1017.5C 599.652,1021.09 592.652,1024.42 585.5,1027.5C 581,1033.83 576.5,1040.17 572,1046.5C 568.26,1040.02 564.76,1033.36 561.5,1026.5C 554.5,1022.33 547.5,1018.17 540.5,1014C 547.5,1010.83 554.5,1007.67 561.5,1004.5C 566.25,998.423 570.583,992.09 574.5,985.5 Z"/></g>
</svg>
